<svg xmlns="http://www.w3.org/2000/svg" width="16" height="13" viewBox="0 0 16 13">
  <defs>
    <style>
      .cls-1 {
        fill: #fff;
        fill-rule: evenodd;
      }
    </style>
  </defs>
  <path id="Forma_1" data-name="Forma 1" class="cls-1" d="M209.559,5612.24a6.812,6.812,0,0,1-2.086.8,3.284,3.284,0,0,0-5.593,2.99,9.352,9.352,0,0,1-6.766-3.43,3.287,3.287,0,0,0,1.016,4.38,3.381,3.381,0,0,1-1.486-.41v0.04a3.286,3.286,0,0,0,2.632,3.22,3.5,3.5,0,0,1-.864.11,3.151,3.151,0,0,1-.618-0.06,3.268,3.268,0,0,0,3.065,2.28,6.592,6.592,0,0,1-4.076,1.41,6.745,6.745,0,0,1-.783-0.05,9.328,9.328,0,0,0,14.37-7.86l-0.01-.43a6.685,6.685,0,0,0,1.64-1.69,6.61,6.61,0,0,1-1.885.51A3.288,3.288,0,0,0,209.559,5612.24Z" transform="translate(-194 -5612)"/>
</svg>
